<svg width="152" height="73" viewBox="0 0 152 73" fill="none" xmlns="http://www.w3.org/2000/svg">
<g clip-path="url(#clip0_142_316)">
<path d="M136.245 0.117662C135.844 0.263418 134.541 0.895025 134.432 0.992197C134.407 1.00434 134.59 1.19868 134.833 1.40517C135.332 1.85459 135.965 3.10565 136.355 4.44175L136.623 5.35272L136.197 7.47833C135.965 8.64437 135.491 11.0493 135.15 12.8227C134.809 14.5961 134.456 16.4545 134.359 16.9524C133.726 20.0741 133.081 24.1917 133.081 25.0055C133.081 26.3901 134.067 26.876 135.831 26.3658C136.501 26.1715 136.647 25.9772 136.306 25.6978C136.209 25.6128 136.002 25.1634 135.856 24.6897C135.637 23.9487 135.612 23.6572 135.673 22.3697C135.734 21.0822 136.27 17.1711 136.61 15.6164C136.671 15.3127 136.951 13.6365 137.231 11.8753C137.511 10.1262 137.779 8.69296 137.827 8.69296C137.937 8.69296 138.29 9.61608 139.592 13.2478C141.771 19.321 143.597 23.4993 144.729 25.0419C145.897 26.6331 147.065 26.961 147.905 25.9407C148.258 25.5156 148.903 24.0945 149.256 22.9649C150.644 18.495 152.323 6.82243 151.946 4.23526C151.8 3.15424 151.666 2.802 151.265 2.43761C150.826 2.02463 150.133 2.03678 149.329 2.44975C148.989 2.6198 148.623 2.86273 148.49 2.98419C148.27 3.20282 148.27 3.21497 148.636 3.67653C149.122 4.2717 149.475 5.29199 149.634 6.54306C150.145 10.6242 148.916 20.317 147.65 22.1875C147.272 22.7462 147.017 22.7584 146.542 22.2604C145.568 21.2158 144.084 17.7177 141.296 9.78613C138.899 2.98419 138.302 1.36873 138.022 0.822147C137.645 0.0812225 137 -0.173849 136.245 0.117662Z" fill="white"/>
<path d="M107.399 0.445318C107.168 0.518196 106.681 0.676098 106.328 0.821854C105.768 1.04049 105.695 1.10122 105.78 1.332C105.975 1.86644 105.817 3.43331 105.099 7.78169C104.685 10.2474 104.052 14.0735 103.687 16.2841C103.322 18.4826 102.932 20.9847 102.823 21.835C102.628 23.2925 102.628 23.4383 102.823 24.1671C103.31 25.9404 104.478 26.572 107.241 26.5599C108.787 26.5599 110.223 26.402 111.866 26.0497C113.485 25.7218 114.325 25.3695 114.836 24.8473C115.262 24.3978 115.992 22.8796 115.797 22.8067C115.749 22.7824 115.274 22.9403 114.751 23.1468C114.227 23.3533 113.229 23.6691 112.523 23.8513C111.416 24.1185 110.953 24.1671 109.347 24.1671C107.484 24.1792 107.448 24.1792 106.73 23.8148C105.707 23.3047 105.537 22.9403 105.634 21.507C105.695 20.4746 105.841 19.4179 106.243 17.0736C106.34 16.5027 106.584 14.9966 106.791 13.7334C106.998 12.458 107.241 10.964 107.338 10.3931C107.618 8.76554 108.251 4.93945 108.385 4.10136C108.446 3.68838 108.555 3.09321 108.616 2.78956C108.689 2.4859 108.75 1.90288 108.75 1.4899C108.762 0.858294 108.726 0.712538 108.495 0.530342C108.203 0.287416 108.032 0.27527 107.399 0.445318Z" fill="white"/>
<path d="M76.5816 0.967335C76.1921 1.05236 75.8391 1.14953 75.8026 1.19812C75.7539 1.2467 75.8878 1.79329 76.0947 2.4006C76.9224 4.80557 77.5675 8.00005 77.9934 11.8504C78.103 12.7493 78.249 14.0125 78.3221 14.6441C78.5046 16.2231 78.6142 24.9563 78.456 25.8187C78.3829 26.1831 78.3708 26.5353 78.4316 26.5839C78.5533 26.7175 80.2816 26.256 80.6955 25.9887C81.1215 25.7094 81.7057 24.5798 82.509 22.5392C83.7383 19.369 86.5012 13.1136 87.3045 11.6682L87.5722 11.1824L87.4992 14.7655C87.3775 21.4096 87.7791 24.4826 88.9232 25.5393C89.9335 26.4867 91.2114 26.1223 92.8546 24.4462C96.6763 20.5229 99.6096 12.4699 99.6096 5.89874C99.6096 2.87431 99.0376 2.04836 97.0293 2.15767C96.506 2.19411 96.0191 2.26699 95.9582 2.32772C95.8974 2.38845 95.9826 2.85001 96.2017 3.48162C96.8589 5.44933 97.0171 7.00405 96.8224 9.78556C96.579 13.308 95.8974 16.381 94.8141 18.9074C93.6335 21.6768 92.5259 23.025 91.4549 23.025C90.7611 23.025 90.3838 22.4663 90.1039 21.0209C89.8483 19.7212 89.8848 12.3484 90.1525 9.42117C90.542 5.34001 90.542 5.27928 90.2377 4.89059C90.0308 4.62337 89.8726 4.56264 89.471 4.56264C88.4607 4.56264 88.5338 4.46547 87.1584 7.63566C86.0752 10.1257 84.8215 13.1136 82.4846 18.7738C81.6083 20.8994 81.3162 21.5675 81.2797 21.531C81.2553 21.5067 81.1823 20.5958 81.1093 19.4905C80.6955 12.5306 80.3303 9.1661 79.5757 5.0485C78.8333 1.01592 78.4803 0.542215 76.5816 0.967335Z" fill="white"/>
<path d="M8.62943 1.33204C5.34319 2.08511 2.15431 5.37676 0.827646 9.38505C0.146055 11.4742 0 12.7131 0 16.2842C0.0121713 19.7094 0.146055 21.1427 0.76679 24.1185C1.08324 25.649 1.77701 28.0296 2.15431 28.8677C3.63921 32.2201 6.92545 34.783 11.1611 35.8762C12.2565 36.1555 12.6338 36.192 14.4108 36.2041C16.6016 36.2041 17.4658 36.0583 19.401 35.3782C24.659 33.5441 28.7607 28.6977 29.564 23.3897C29.9535 20.8755 29.6735 19.3329 28.3469 16.5028C26.083 11.7293 22.03 6.48208 18.6099 3.91921C17.2954 2.92321 15.4332 1.98795 13.9604 1.56282C12.6216 1.18629 9.81004 1.06482 8.62943 1.33204ZM14.1065 3.70057C15.3601 4.02852 17.0398 4.86662 18.1108 5.66828C22.0909 8.69271 26.7159 15.2882 27.8113 19.5394C28.1765 20.9119 28.0913 22.9646 27.6166 24.5436C26.3995 28.6734 23.0646 32.2201 19.0359 33.702C17.4414 34.285 16.8694 34.37 14.6542 34.37C12.6946 34.3822 12.4269 34.3579 11.3315 34.0542C8.94588 33.3862 7.21756 32.3659 5.61095 30.6775C3.84612 28.8313 3.03065 26.7907 2.25168 22.2358C1.37535 17.1344 1.67963 12.3245 3.07933 9.23929C4.13823 6.91935 6.15866 4.7573 8.03304 3.9435C9.10411 3.48194 9.98044 3.34833 11.6114 3.39692C12.6459 3.43335 13.4493 3.53053 14.1065 3.70057Z" fill="white"/>
<path d="M15.9809 14.0978C15.7374 14.1828 14.8611 14.608 14.0335 15.0452C12.5851 15.7983 12.1347 15.9684 10.2117 16.4056C8.23993 16.855 7.03498 17.8267 6.1343 19.673C4.68592 22.6731 5.51357 26.3656 8.09388 28.2969C10.6377 30.2038 14.2769 30.629 17.697 29.4386C20.9589 28.2969 23.1619 26.317 24.4034 23.4383C24.805 22.5031 24.8172 22.4302 24.8172 20.839C24.8172 19.4908 24.7685 19.09 24.5738 18.592C23.6974 16.3327 21.8352 14.693 19.5105 14.11C18.549 13.8792 16.6016 13.867 15.9809 14.0978ZM17.624 16.855C19.0358 17.3166 19.9122 18.179 20.3017 19.5029C20.6668 20.7297 20.4721 21.92 19.7418 22.9889C19.1089 23.9242 18.8168 23.9606 17.5023 23.2076C16.1634 22.4423 15.7861 22.4666 15.3358 23.3776C15.1776 23.6813 14.9585 24.2278 14.8246 24.5922C14.496 25.5032 14.1673 25.7461 13.3032 25.649C11.6844 25.4911 10.5403 24.738 9.89522 23.4505C9.54226 22.7217 9.51791 22.6002 9.5666 21.665C9.63963 20.3653 10.0535 19.4786 11.0637 18.4705C12.8042 16.7336 15.3601 16.102 17.624 16.855Z" fill="white"/>
<path d="M127.908 1.73263C127.543 1.79336 126.679 1.97555 124.013 2.55857C122.492 2.88652 120.861 2.99584 120.252 2.81365L119.911 2.70433L119.997 3.23877C120.191 4.40481 120.861 5.04857 121.895 5.04857C122.163 5.04857 122.759 4.98784 123.234 4.91496C123.697 4.82993 124.111 4.80564 124.159 4.84208C124.196 4.89067 124.086 5.78949 123.916 6.83407C123.49 9.36051 121.177 23.4381 121.08 24.0332C120.995 24.592 120.8 24.6527 119.266 24.6649C118.451 24.6649 118.061 24.6041 117.757 24.4462C117.526 24.3369 117.319 24.2397 117.282 24.2397C117.246 24.2397 117.258 24.5434 117.295 24.9078C117.404 25.9281 117.696 26.4382 118.39 26.7783L118.986 27.0698L120.824 26.8026C121.847 26.6568 123.392 26.4382 124.257 26.2925C125.827 26.0495 127.896 26.0252 128.748 26.2439L129.089 26.341L129.003 25.6851C128.882 24.7013 128.504 24.009 127.981 23.7782C127.604 23.6203 127.336 23.6203 126.021 23.7417C125.182 23.8268 124.354 23.9239 124.171 23.9604C123.891 24.009 123.831 23.9847 123.831 23.7903C123.831 23.6689 124.098 21.9198 124.439 19.9278C124.768 17.9237 125.291 14.7535 125.595 12.8829C125.9 11.0124 126.216 9.02041 126.326 8.44953C126.423 7.87866 126.581 6.87051 126.691 6.20247C127.019 4.19833 126.934 4.36837 127.579 4.19833C128.614 3.94325 130.281 3.89467 130.817 4.12545C131.072 4.23476 131.316 4.31979 131.34 4.31979C131.45 4.31979 131.231 3.28735 131.012 2.8015C130.902 2.53428 130.659 2.18204 130.476 2.01199C130.184 1.74477 130.014 1.70833 129.21 1.69619C128.699 1.68404 128.115 1.69619 127.908 1.73263Z" fill="white"/>
<path d="M44.8998 2.42547C41.0415 3.23928 37.524 5.54708 36.9276 7.64839C36.7572 8.24356 36.8059 9.5918 37.0007 9.78614C37.0859 9.87116 37.3171 9.62824 37.7066 9.05736C39.0089 7.15039 40.7007 5.66854 42.5386 4.8183C43.9261 4.17454 45.0094 3.95591 46.7742 3.95591C48.5755 3.95591 49.2815 4.17454 50.243 5.06122C51.1193 5.85073 51.4236 6.59166 51.4966 8.02493C51.6914 11.8875 49.1598 15.1184 45.2528 15.9808C44.1452 16.2237 43.0741 16.2966 42.9768 16.1265C42.9402 16.0779 43.1837 14.4503 43.5123 12.5191C44.206 8.4379 44.3034 7.19897 43.9261 6.90746C43.6218 6.67668 42.9646 6.76171 41.9787 7.15039C41.2971 7.41761 41.2484 7.46619 41.2728 7.79414C41.358 8.80229 41.2728 9.66468 40.8224 12.4219C40.2382 15.9322 40.2626 15.8593 39.9948 15.8593C39.6418 15.8593 38.2786 15.1548 37.5362 14.5839C37.1467 14.2803 36.7937 14.0373 36.7572 14.0373C36.7207 14.0373 36.6842 14.3289 36.6842 14.6933C36.6842 15.7986 37.3536 16.4788 39.0819 17.1468C39.9218 17.4626 39.9704 17.4991 39.9218 17.7906C39.8366 18.1914 38.4369 26.8153 38.3517 27.4104C38.303 27.702 38.3517 27.9449 38.4734 28.1271C38.6438 28.3579 38.7533 28.3943 39.2889 28.3457C39.6297 28.3214 40.226 28.1514 40.6034 27.9813L41.2849 27.6655L41.2971 26.706C41.2971 26.1837 41.431 24.969 41.6014 23.9973C41.7718 23.0256 42.0761 21.2644 42.2708 20.0741C42.4777 18.8837 42.6725 17.8634 42.709 17.8027C42.7577 17.7298 43.2932 17.6812 43.9018 17.6812C47.6018 17.6812 51.6062 15.1184 53.298 11.6688C54.1865 9.87116 54.4664 8.0978 54.1621 6.39732C53.7483 4.11381 52.5312 2.8506 50.2308 2.3283C48.9163 2.03679 46.5794 2.07323 44.8998 2.42547Z" fill="white"/>
<path d="M68.2078 2.41288C66.9907 2.81371 66.1996 3.68824 63.9235 7.1135C61.7692 10.3809 60.187 12.8951 59.0672 14.8507L58.2883 16.1989L56.8886 16.2475C55.3063 16.2961 54.7829 16.4905 54.1135 17.2557C53.7605 17.6444 53.3589 18.3974 53.3589 18.6525C53.3589 18.7011 53.6753 18.6161 54.077 18.4582C54.576 18.2517 55.1481 18.1424 56.0244 18.0938C56.6938 18.0452 57.2537 18.033 57.2537 18.0695C57.2537 18.1059 56.9251 18.8104 56.5356 19.6485C55.5375 21.762 54.9777 23.3045 54.7586 24.5799C54.5638 25.7216 54.6125 26.0982 55.002 26.4261C55.3185 26.6812 55.9027 26.6083 56.9129 26.1954L57.8257 25.8067L57.631 25.2722C57.4728 24.8228 57.4606 24.6042 57.5823 23.7661C57.7527 22.6243 58.556 20.1586 59.1159 19.0412L59.5054 18.276L63.2176 18.2395C65.2624 18.2152 67.0394 18.1545 67.1854 18.1059C67.4289 18.033 67.4532 18.1059 67.6601 19.4056C68.2078 22.9766 68.8773 25.1022 69.7292 26.0496C70.1066 26.4626 70.2648 26.5476 70.6299 26.5476C71.1411 26.5476 72.0296 26.0375 72.4434 25.5152L72.7234 25.1751L72.3582 24.7985C71.348 23.7297 70.7638 21.7134 70.0944 16.9763C69.3884 12.057 69.2181 4.6478 69.7536 2.40073C69.8144 2.15781 69.7779 2.13352 69.4128 2.14566C69.1815 2.14566 68.646 2.26712 68.2078 2.41288ZM66.9907 13.296C67.1611 15.3123 67.1976 16.1868 67.1124 16.2718C66.9785 16.4054 60.4182 16.5512 60.4182 16.4297C60.4182 16.1989 61.4771 13.9883 62.2317 12.6522C62.9864 11.304 64.7999 8.49818 66.1509 6.59121L66.5647 5.99604L66.6621 8.23096C66.7108 9.44559 66.869 11.7291 66.9907 13.296Z" fill="white"/>
<path d="M59.4079 32.6212C59.0306 32.7427 58.5194 32.9856 58.3003 33.1556C56.925 34.2002 57.1076 36.7145 58.6168 37.6376C59.4566 38.1599 60.7468 38.3178 61.7813 38.0385C62.6455 37.8077 63.3514 37.3097 63.6557 36.7388C63.8504 36.3501 63.8504 36.3623 63.2054 36.2165C62.9254 36.1558 62.8524 36.2044 62.7307 36.5202C62.6455 36.7267 62.3534 37.0425 62.0856 37.2125C61.6718 37.4797 61.4649 37.5283 60.7346 37.5283C59.1645 37.5283 58.349 36.7752 58.349 35.2934C58.349 33.9695 58.9698 33.2164 60.2112 33.0463C61.2214 32.9006 61.8422 33.0585 62.4142 33.6294C62.8037 34.0302 62.9863 34.1274 63.2541 34.1031C63.7287 34.0423 63.68 33.7022 63.108 33.1921C62.2317 32.4026 60.7833 32.1839 59.4079 32.6212Z" fill="white"/>
<path d="M90.6638 32.5355C89.1424 33.0456 88.4121 33.9444 88.4121 35.317C88.4121 36.981 89.8118 38.1349 91.8809 38.1349C93.9744 38.1471 95.3497 37.0175 95.3497 35.2927C95.3497 34.0902 94.7777 33.2521 93.5971 32.742C92.8546 32.414 91.3576 32.3047 90.6638 32.5355ZM92.8181 33.1063C93.3536 33.2642 93.95 33.7379 94.1935 34.2117C94.4247 34.6489 94.4247 35.9364 94.1935 36.3737C93.5971 37.5397 91.7349 37.9406 90.4204 37.1996C90.1526 37.0539 89.8118 36.7381 89.6536 36.5073C89.398 36.1308 89.3736 35.9729 89.4102 35.1712C89.4345 34.491 89.5075 34.1752 89.6901 33.9323C90.2987 33.1306 91.6253 32.7784 92.8181 33.1063Z" fill="white"/>
<path d="M110.247 32.5361C108.921 32.9734 108.227 33.6779 108.02 34.7468C107.679 36.5444 108.921 37.9048 111.124 38.1599C112.085 38.2813 113.522 37.8076 114.154 37.176C115.505 35.8278 115.079 33.6536 113.302 32.8033C112.475 32.4147 111.014 32.2932 110.247 32.5361ZM112.426 33.1192C113.035 33.2771 113.68 33.8601 113.862 34.4067C114.057 35.0261 113.947 36.1922 113.643 36.6051C113.071 37.3704 111.671 37.7712 110.564 37.4797C109.846 37.2853 109.03 36.4837 108.921 35.8642C108.799 35.2569 108.933 34.4674 109.225 33.9815C109.712 33.1799 111.209 32.7791 112.426 33.1192Z" fill="white"/>
<path d="M121.299 32.56C120.471 32.7907 120.07 33.0094 119.668 33.4345C118.67 34.4791 118.719 36.3132 119.753 37.2241C120.788 38.123 122.735 38.3902 124.415 37.8679C125.644 37.4792 125.778 37.3213 125.778 36.216C125.778 35.6087 125.729 35.305 125.632 35.2686C125.547 35.2443 124.829 35.2443 124.05 35.2686C122.772 35.3172 122.613 35.3415 122.613 35.5358C122.613 35.7909 123.222 35.9366 123.806 35.8273C124.013 35.7787 124.33 35.7909 124.5 35.8273C124.792 35.9002 124.816 35.9488 124.78 36.4711C124.743 37.0055 124.731 37.0298 124.135 37.2727C123.222 37.6371 121.859 37.6128 121.08 37.2241C119.692 36.544 119.425 34.807 120.532 33.7017C121.08 33.1551 121.798 32.9365 122.796 33.0215C123.684 33.0823 124.269 33.3616 124.536 33.8475C124.719 34.1511 124.792 34.1876 125.109 34.1268C125.315 34.0783 125.486 34.0297 125.51 34.0175C125.583 33.9446 125.194 33.2887 124.975 33.0823C124.293 32.4871 122.48 32.232 121.299 32.56Z" fill="white"/>
<path d="M147.163 32.4995C146.116 32.7668 145.617 33.2283 145.617 33.9328C145.617 34.2365 145.714 34.4429 145.982 34.6859C146.335 35.0138 146.749 35.1596 148.782 35.609C150.242 35.9369 150.668 36.605 149.792 37.188C148.721 37.9046 146.591 37.5281 146.226 36.5564C146.116 36.2649 145.836 36.192 145.447 36.3378C145.301 36.3864 145.288 36.4714 145.386 36.7264C145.727 37.6374 146.749 38.1233 148.356 38.1233C149.609 38.1354 150.583 37.7224 150.948 37.0301C151.508 35.9855 150.498 35.1717 148.185 34.7952C147.26 34.6494 146.615 34.3944 146.518 34.1393C146.481 34.0421 146.481 33.8113 146.518 33.6413C146.639 33.1676 147.309 32.9489 148.416 33.0097C149.305 33.0704 149.329 33.0826 149.767 33.5927C150.096 33.9692 150.279 34.0907 150.498 34.0543C150.656 34.0421 150.802 33.9328 150.826 33.8235C150.887 33.5198 150.303 32.9125 149.731 32.6817C149.11 32.4388 147.796 32.3416 147.163 32.4995Z" fill="white"/>
<path d="M38.1448 32.8025C38.1448 33.094 38.1569 33.094 39.3376 33.1305L40.5182 33.1669L40.5547 35.6205L40.579 38.0862H41.005H41.431L41.4554 35.6205L41.4919 33.1669L42.6847 33.1305C43.8531 33.094 43.8653 33.094 43.8653 32.8025V32.4989H41.005H38.1448V32.8025Z" fill="white"/>
<path d="M47.8818 35.2925V38.0862H50.6204H53.3589V37.7825V37.4789H51.1072H48.8555V36.5072C48.8555 35.6691 48.8799 35.5355 49.0746 35.5355C49.1842 35.5233 50.0848 35.5233 51.0829 35.5355L52.8721 35.5476V35.2318V34.9281H50.8638H48.8555V34.0172V33.1062L51.022 33.0819C53.079 33.0455 53.1763 33.0333 53.1763 32.8025C53.1763 32.5718 53.079 32.5596 50.5352 32.5232L47.8818 32.4989V35.2925Z" fill="white"/>
<path d="M67.9644 35.2925V38.0862H68.4512H68.9381V36.7501V35.414H70.8855H72.8329V36.7501V38.0862H73.2467C73.4901 38.0862 73.6849 38.0133 73.7214 37.9161C73.8187 37.6854 73.8187 33.1548 73.7335 32.7904C73.6727 32.5596 73.5875 32.4989 73.2467 32.4989H72.8329V33.6528V34.8067H70.8855H68.9381V33.6528V32.4989H68.4512H67.9644V35.2925Z" fill="white"/>
<path d="M78.3099 35.2925V38.0862H78.7359H79.1619V35.9606C79.1619 34.7095 79.2106 33.835 79.2715 33.835C79.3445 33.835 80.1965 34.7459 81.1945 35.8634C82.1804 36.993 83.0446 37.9404 83.1176 37.989C83.1784 38.0376 83.4219 38.0862 83.641 38.0862H84.0304V35.2804V32.4867L83.641 32.5232L83.2393 32.5596L83.2028 34.6609C83.1906 35.827 83.1298 36.7501 83.0689 36.7258C83.008 36.7015 82.1317 35.7419 81.1215 34.588C79.308 32.5475 79.2715 32.4989 78.7968 32.4989H78.3099V35.2925Z" fill="white"/>
<path d="M99.5123 35.2561L99.5488 38.0255L101.837 38.0619L104.113 38.0862V37.7825V37.491L102.324 37.4546L100.522 37.4181L100.486 34.9524L100.462 32.4989H99.9748H99.4879L99.5123 35.2561Z" fill="white"/>
<path d="M130.281 35.2925V38.0862H130.707H131.133V35.2925V32.4989H130.707H130.281V35.2925Z" fill="white"/>
<path d="M135.88 35.2925V38.0862L138.594 38.0619C141.284 38.0255 141.296 38.0255 141.333 37.7582L141.369 37.4789L139.081 37.4546L136.793 37.4181L136.756 36.5193C136.732 35.8756 136.769 35.584 136.878 35.5112C136.963 35.4626 137.803 35.414 138.74 35.414C139.677 35.4261 140.542 35.4261 140.663 35.414C140.785 35.414 140.87 35.3168 140.87 35.1711C140.87 34.9403 140.773 34.9281 138.838 34.9038L136.793 34.8674V34.0172V33.1669L138.959 33.1305L141.114 33.1062V32.8025V32.4989H138.497H135.88V35.2925Z" fill="white"/>
<path d="M20.9346 37.5523C20.5329 37.7102 20.1556 37.8924 20.0948 37.9531C19.9852 38.0624 20.8251 40.0544 21.531 41.3055C22.6021 43.2124 25.1337 46.0668 27.1298 47.573C31.0611 50.5731 36.2217 52.8809 42.7942 54.5935C45.5571 55.3102 46.5186 55.5288 48.6729 55.9296C55.5253 57.1928 63.4732 57.9581 72.4069 58.201C75.3158 58.286 76.2652 58.3832 75.8148 58.5532C73.7214 59.3549 72.4069 60.1322 69.6197 62.2336C64.6173 65.9746 61.9031 68.4646 61.331 69.8371C61.2337 70.0679 61.1485 70.323 61.1485 70.3959C61.1485 70.4687 61.5501 70.5173 62.183 70.5173C62.7551 70.5173 63.2176 70.4687 63.2176 70.408C63.2176 70.2137 64.7146 68.6832 65.9439 67.6265C68.8894 65.0758 73.052 62.0028 74.6586 61.1768C75.9122 60.5331 77.0685 60.1322 79.0402 59.6464C80.5251 59.2699 82.1196 58.7719 82.5942 58.5289C82.8498 58.4075 83.3975 58.371 84.8459 58.3953L86.769 58.4318L86.2821 58.6504C86.0144 58.784 85.6005 58.9662 85.3693 59.0755C83.9574 59.7193 81.2676 61.6141 77.5797 64.5535C74.5125 67.0071 72.1513 69.5821 72.3947 70.2137C72.4434 70.3473 72.6747 70.3959 73.3197 70.3959H74.1717L75.4132 69.1084C76.7399 67.7358 78.2613 66.4362 80.7929 64.4928C85.3571 61.0189 86.27 60.5209 90.0065 59.5371C91.6983 59.0998 93.1467 58.6382 93.8892 58.3346C94.3273 58.1402 98.0639 57.9945 98.2221 58.1645C98.2708 58.201 97.9909 58.371 97.6257 58.5411C96.7251 58.9419 95.6662 59.6342 93.524 61.2254C88.0591 65.2944 84.8824 68.2946 84.8824 69.3756C84.8824 69.6549 84.9068 69.6671 85.8318 69.6671L86.769 69.6549L87.4384 68.8776C89.2032 66.8127 96.0678 61.4805 98.4534 60.3144C99.1837 59.95 100.376 59.5128 101.435 59.2213C102.409 58.9419 104.028 58.4803 105.026 58.1888L106.852 57.6544L109.894 57.5208C111.574 57.4601 113.29 57.3629 113.728 57.3386C114.167 57.3022 116.004 57.1928 117.806 57.0957C123.356 56.792 125.522 56.6705 127.482 56.5491C128.516 56.4762 130.525 56.3669 131.924 56.3062C133.336 56.2333 135.442 56.1361 136.61 56.0754C137.779 56.0025 140.274 55.9175 142.148 55.8689C144.023 55.8203 146.433 55.7596 147.504 55.711C149.731 55.626 149.621 55.711 149.451 54.387L149.366 53.719L145.337 53.804C143.11 53.8405 140.773 53.9012 140.14 53.9376C139.507 53.9741 137.73 54.0591 136.184 54.1198C132.995 54.2534 130.123 54.3992 125.656 54.6664C123.952 54.7636 121.128 54.9336 119.388 55.0308C117.647 55.128 115.323 55.2737 114.215 55.3344C113.108 55.3952 110.917 55.5166 109.347 55.5895L106.486 55.7353L105.148 55.298C104.417 55.0551 103.078 54.6543 102.19 54.4235C99.4636 53.6947 98.1126 53.136 96.6277 52.14C95.3862 51.3019 91.4671 48.3139 89.9944 47.075C88.6434 45.9332 86.5864 43.9048 86.5864 43.7104C86.5864 43.6133 84.6268 43.6497 84.5295 43.7469C84.5051 43.7712 84.639 44.0991 84.8216 44.4878C85.4545 45.7753 88.2174 48.2896 92.6477 51.6055C96.0313 54.1441 97.0172 54.7393 99.1593 55.5288C99.6705 55.7231 100.097 55.9175 100.097 55.9539C100.097 56.0025 98.7699 56.0754 97.1511 56.124L94.1935 56.1968L93.098 55.8203C92.5016 55.6138 91.3576 55.2859 90.5786 55.0915C87.7305 54.3627 85.8318 53.5975 84.286 52.5529C82.9837 51.6541 79.8192 49.237 78.2491 47.9252C76.2895 46.2976 75.5592 45.6174 74.8533 44.7793L74.3056 44.1234L73.3562 44.1477C72.8329 44.1598 72.3825 44.1963 72.3582 44.2327C72.3217 44.2692 72.4434 44.585 72.626 44.9615C73.2345 46.2004 75.6688 48.4596 79.6853 51.5327C83.1663 54.1927 84.5051 55.0429 86.4404 55.8203C86.9881 56.0511 87.4384 56.2819 87.4384 56.3304C87.4384 56.3912 86.3552 56.4155 85.0407 56.4033C82.8863 56.3669 82.5577 56.3304 81.9613 56.0875C81.5962 55.9418 80.3669 55.5652 79.2228 55.2616C74.7194 54.0348 73.6118 53.4275 68.2078 49.152C65.6883 47.16 63.0959 44.7429 63.0959 44.3906C63.0959 44.3299 62.6212 44.2813 62.0491 44.2813H61.0024L61.0876 44.6093C61.4162 45.9818 63.8505 48.3139 69.0111 52.2007C71.7496 54.2656 72.7355 54.9093 74.3665 55.6988C75.0846 56.0389 75.6323 56.3426 75.6079 56.3669C75.4984 56.4762 65.7979 56.0389 63.461 55.8203C62.7551 55.7596 61.7692 55.6745 61.2702 55.6381C57.4606 55.3344 51.874 54.5571 48.1252 53.804C40.2626 52.2371 34.5177 50.148 30.0509 47.2207C26.1196 44.6578 23.5879 41.7063 22.0909 37.9288C21.9326 37.5523 21.7744 37.2365 21.7257 37.2486C21.6892 37.2486 21.3241 37.3944 20.9346 37.5523Z" fill="white"/>
</g>
<defs>
<clipPath id="clip0_142_316">
<rect width="152" height="73" fill="white"/>
</clipPath>
</defs>
</svg>
